<svg width="48" height="48" xmlns="http://www.w3.org/2000/svg">

 <g>
  <title>background</title>
  <rect fill="none" id="canvas_background" height="402" width="582" y="-1" x="-1"/>
 </g>
 <g>
  <title>Layer 1</title>
  <path fill="#ffffff" id="svg_1" d="m23.95117,4a1.50015,1.50015 0 0 0 -0.8789,0.32227l-14.21289,11.19726c-1.8039,1.42163 -2.85938,3.59398 -2.85938,5.89063l0,19.08984c0,1.36359 1.13641,2.5 2.5,2.5l10,0c1.36359,0 2.5,-1.13641 2.5,-2.5l0,-10c0,-0.29504 0.20496,-0.5 0.5,-0.5l5,0c0.29505,0 0.5,0.20496 0.5,0.5l0,10c0,1.36359 1.13641,2.5 2.5,2.5l10,0c1.36359,0 2.5,-1.13641 2.5,-2.5l0,-19.08984c0,-2.29665 -1.05548,-4.469 -2.85937,-5.89063l-14.2129,-11.19726a1.50015,1.50015 0 0 0 -0.97656,-0.32227zm0.04883,3.41016l13.28516,10.46679c1.0841,0.85437 1.71484,2.15386 1.71484,3.53321l0,18.58984l-9,0l0,-9.5c0,-1.91495 -1.58505,-3.5 -3.5,-3.5l-5,0c-1.91495,0 -3.5,1.58505 -3.5,3.5l0,9.5l-9,0l0,-18.58984c0,-1.37935 0.63074,-2.67884 1.71484,-3.53321l13.28516,-10.46679z"/>
 </g>
</svg>